<?xml version="1.0" encoding="UTF-8"?>
<svg id="Layer_1" data-name="Layer 1" xmlns="http://www.w3.org/2000/svg" viewBox="0 0 512 512">
  <defs>
    <style>
      .cls-1 {
        stroke-width: 0px;
      }
    </style>
  </defs>
  <path class="cls-1" d="m186.48,270.66c0-28.91,23.43-52.34,52.34-52.34s52.34,23.43,52.34,52.34h151.59c-41.73-18.42-66-19.1-100.06-25.85-1.76-.35-3.46-1.04-5.05-1.85-11.95-6.14-11.98-18.69-8.26-25.67.94-1.85,2.22-3.52,3.7-4.98l11.12-11.06c2.48-2.47,4.03-5.8,3.97-9.3-.03-1.6-.37-3.35-1.25-5.14-.71-1.31-1.25-2.05-2.06-3-7.38-8.9-11.54-12.55-17.41-17.76-.95-.81-3.51-2.81-4.82-3.53-1.79-.88-3.54-1.22-5.14-1.25-3.5-.06-6.83,1.49-9.3,3.97l-11.06,11.12c-1.46,1.47-3.13,2.75-4.98,3.7-7.52,4.01-21.5,3.67-26.97-11.22-.65-1.97-.92-4.06-.92-6.13v-15.68c0-3.5-1.27-6.95-3.8-9.37-1.15-1.11-2.64-2.1-4.53-2.73-1.43-.42-2.34-.56-3.58-.65-9.04-.71-13.97-1.07-27.07-.02-1.6.24-2.12.35-3.55.77-1.89.63-3.37,1.63-4.53,2.73-2.53,2.42-3.79,5.87-3.79,9.37v15.68c0,2.08-.28,4.16-.93,6.13-5.47,14.9-19.46,15.23-26.97,11.22-1.85-.94-3.52-2.23-4.98-3.7l-11.06-11.12c-2.47-2.48-5.8-4.03-9.3-3.97-1.6.03-3.35.37-5.14,1.25-1.31.71-3.88,2.72-4.82,3.53-5.87,5.2-10.03,8.86-17.41,17.76-.81.95-1.35,1.69-2.06,3-.88,1.79-1.22,3.54-1.25,5.14-.06,3.5,1.49,6.83,3.97,9.3l11.12,11.06c1.47,1.47,2.75,3.13,3.7,4.98,4.01,7.52,3.67,21.5-11.23,26.97-1.97.65-4.06.92-6.13.92h-15.68c-3.5,0-6.95,1.27-9.37,3.79-1.11,1.15-2.1,2.64-2.73,4.53-.42,1.43-.56,2.34-.65,3.58-.49,4.72-.73,9.42-.66,13.48h84.69Z"/>
  <g>
    <path class="cls-1" d="m100.74,317.57v-28.18h12.11v16.1l17.36-16.1h14.77l-29.47,28.18h-14.77Z"/>
    <path class="cls-1" d="m193.16,289.39l-6.83,8.05h-18.46l-.81,2.01h22.16l-6.83,8.05h-18.46l-.78,2.01h22.16l-6.83,8.05h-33.23l11-28.18h36.93Z"/>
    <path class="cls-1" d="m214.35,309.52l-3.14,8.05h-14.77l11-28.18h25.85c12.31,0,17.15,3.35,14.51,10.06-2.09,5.37-7.29,8.59-15.58,9.66l12.22,8.45h-18.46l-11.63-8.05Zm4.73-12.08l-1.59,4.03h11.08c2.46,0,3.95-.67,4.47-2.01.54-1.34-.42-2.01-2.88-2.01h-11.08Z"/>
    <path class="cls-1" d="m272.03,307.5c-12.31,0-17.27-3.05-14.88-9.14,2.34-5.98,9.66-8.98,21.97-8.98h25.85l-6.83,8.05h-22.16c-2.46,0-3.82.31-4.06.93-.3.72.79,1.09,3.25,1.09h11.08c12.31,0,17.31,2.99,14.99,8.98-2.39,6.09-9.74,9.14-22.05,9.14h-25.85l6.83-8.05h22.16c2.46,0,3.84-.36,4.14-1.09.22-.62-.9-.93-3.36-.93h-11.08Z"/>
    <path class="cls-1" d="m338.09,297.44l-7.87,20.13h-14.77l7.87-20.13h-11.08l3.14-8.05h36.93l-6.83,8.05h-7.39Z"/>
    <path class="cls-1" d="m363.94,313.54l-4.17,4.03h-14.77l29.47-28.18h14.77l7.46,28.18h-14.77l-1.03-4.03h-16.95Zm16.62-8.05l-1.85-8.05-8.01,8.05h9.86Z"/>
    <path class="cls-1" d="m429.56,297.44l-7.87,20.13h-14.77l7.87-20.13h-11.08l3.14-8.05h36.93l-6.83,8.05h-7.39Z"/>
    <path class="cls-1" d="m100.74,327.63h5.17v26.24h-5.17v-26.24Z"/>
    <path class="cls-1" d="m139.85,327.63h5.17v26.24h-3.94l-11.25-16.05v16.05h-5.17v-26.24h3.94l11.25,16.01v-16.01Z"/>
    <path class="cls-1" d="m174.2,327.63c3.6,0,6.6,1.26,9.02,3.79,2.41,2.53,3.62,5.64,3.62,9.34s-1.21,6.81-3.62,9.34c-2.41,2.52-5.42,3.79-9.02,3.79h-10.42v-26.24h10.42Zm0,21.3c2.27,0,4.12-.76,5.55-2.27,1.42-1.51,2.14-3.48,2.14-5.9s-.71-4.39-2.14-5.9c-1.42-1.51-3.27-2.27-5.55-2.27h-5.25v16.35h5.25Z"/>
    <path class="cls-1" d="m213.95,354.4c-2.92,0-5.32-.82-7.2-2.47-1.87-1.65-2.81-3.86-2.81-6.64v-17.66h5.14v17.25c0,1.37.39,2.46,1.18,3.26.79.8,2.02,1.2,3.69,1.2s2.91-.4,3.69-1.2c.79-.8,1.18-1.89,1.18-3.26v-17.25h5.17v17.66c0,2.78-.94,4.99-2.81,6.64-1.87,1.65-4.29,2.47-7.24,2.47Z"/>
    <path class="cls-1" d="m251.07,354.4c-2.6,0-4.79-.58-6.56-1.74-1.77-1.16-3.02-2.74-3.75-4.74l4.42-2.59c1.02,2.67,3.04,4.01,6.04,4.01,1.45,0,2.51-.26,3.19-.79.67-.52,1.01-1.19,1.01-1.99,0-.92-.41-1.64-1.24-2.16-.82-.51-2.3-1.07-4.42-1.67-1.17-.35-2.17-.7-2.98-1.05-.81-.35-1.63-.82-2.44-1.41-.81-.59-1.43-1.33-1.86-2.23-.43-.9-.64-1.95-.64-3.15,0-2.37.84-4.27,2.53-5.68,1.69-1.41,3.72-2.12,6.09-2.12,2.12,0,3.99.52,5.6,1.56,1.61,1.04,2.87,2.48,3.77,4.33l-4.35,2.51c-1.05-2.25-2.72-3.37-5.02-3.37-1.08,0-1.92.24-2.53.73-.61.49-.92,1.12-.92,1.89,0,.83.34,1.49,1.03,2.01.69.51,2.01,1.07,3.96,1.67.8.25,1.41.44,1.82.58.41.14.97.35,1.69.64.71.29,1.26.56,1.65.81.39.25.83.59,1.33,1.01.5.43.88.86,1.14,1.31.26.45.49.99.67,1.63s.28,1.33.28,2.08c0,2.42-.88,4.35-2.64,5.77-1.76,1.43-4.06,2.14-6.88,2.14Z"/>
    <path class="cls-1" d="m294.97,327.63v4.95h-7.09v21.3h-5.17v-21.3h-7.05v-4.95h19.31Z"/>
    <path class="cls-1" d="m325.5,353.88l-5.29-9.11h-3.94v9.11h-5.17v-26.24h10.5c2.42,0,4.49.85,6.19,2.55,1.7,1.7,2.55,3.75,2.55,6.15,0,1.62-.46,3.13-1.39,4.52-.92,1.39-2.15,2.43-3.67,3.13l5.81,9.9h-5.59Zm-9.22-21.41v7.76h5.32c.97,0,1.81-.38,2.51-1.14.7-.76,1.05-1.68,1.05-2.76s-.35-1.99-1.05-2.74c-.7-.75-1.54-1.12-2.51-1.12h-5.32Z"/>
    <path class="cls-1" d="m347.9,327.63h5.17v26.24h-5.17v-26.24Z"/>
    <path class="cls-1" d="m377,348.93h11.06v4.95h-16.23v-26.24h16.05v4.95h-10.87v5.59h9.94v4.87h-9.94v5.89Z"/>
    <path class="cls-1" d="m414.34,354.4c-2.6,0-4.79-.58-6.56-1.74-1.77-1.16-3.02-2.74-3.75-4.74l4.42-2.59c1.02,2.67,3.04,4.01,6.04,4.01,1.45,0,2.51-.26,3.19-.79.67-.52,1.01-1.19,1.01-1.99,0-.92-.41-1.64-1.24-2.16-.82-.51-2.3-1.07-4.42-1.67-1.17-.35-2.17-.7-2.98-1.05-.81-.35-1.63-.82-2.44-1.41-.81-.59-1.43-1.33-1.86-2.23-.43-.9-.64-1.95-.64-3.15,0-2.37.84-4.27,2.53-5.68,1.69-1.41,3.72-2.12,6.09-2.12,2.12,0,3.99.52,5.6,1.56,1.61,1.04,2.87,2.48,3.77,4.33l-4.35,2.51c-1.05-2.25-2.72-3.37-5.02-3.37-1.08,0-1.92.24-2.53.73-.61.49-.92,1.12-.92,1.89,0,.83.34,1.49,1.03,2.01.69.51,2.01,1.07,3.96,1.67.8.25,1.41.44,1.82.58.41.14.97.35,1.69.64.71.29,1.26.56,1.65.81.39.25.83.59,1.33,1.01.5.43.88.86,1.14,1.31.26.45.49.99.67,1.63s.28,1.33.28,2.08c0,2.42-.88,4.35-2.64,5.77-1.76,1.43-4.06,2.14-6.88,2.14Z"/>
  </g>
</svg>