<?xml version="1.0" encoding="UTF-8"?>
<svg id="Layer_1" data-name="Layer 1" xmlns="http://www.w3.org/2000/svg" viewBox="0 0 512 512">
  <defs>
    <style>
      .cls-1 {
        stroke-width: 0px;
      }
    </style>
  </defs>
  <path class="cls-1" d="m100.16,278.95c0-9.97,8.08-18.05,18.05-18.05s18.05,8.08,18.05,18.05h52.27c-14.39-6.35-22.76-6.59-34.5-8.91-.61-.12-1.19-.36-1.74-.64-4.12-2.12-4.13-6.45-2.85-8.85.33-.64.77-1.21,1.28-1.72l3.83-3.81c.86-.85,1.39-2,1.37-3.21-.01-.55-.13-1.16-.43-1.77-.25-.45-.43-.71-.71-1.03-2.54-3.07-3.98-4.33-6.01-6.12-.33-.28-1.21-.97-1.66-1.22-.62-.3-1.22-.42-1.77-.43-1.21-.02-2.36.51-3.21,1.37l-3.81,3.83c-.51.51-1.08.95-1.72,1.28-2.59,1.38-7.41,1.27-9.3-3.87-.22-.68-.32-1.4-.32-2.12v-5.41c0-1.21-.44-2.4-1.31-3.23-.4-.38-.91-.72-1.56-.94-.49-.14-.81-.19-1.23-.22-3.12-.25-4.82-.37-9.33,0-.55.08-.73.12-1.23.26-.65.22-1.16.56-1.56.94-.87.83-1.31,2.02-1.31,3.23v5.41c0,.72-.1,1.44-.32,2.12-1.89,5.14-6.71,5.25-9.3,3.87-.64-.33-1.21-.77-1.72-1.28l-3.81-3.83c-.85-.86-2-1.39-3.21-1.37-.55.01-1.16.13-1.77.43-.45.25-1.34.94-1.66,1.22-2.02,1.79-3.46,3.06-6.01,6.12-.28.33-.47.58-.71,1.03-.3.62-.42,1.22-.43,1.77-.02,1.21.51,2.36,1.37,3.21l3.83,3.81c.51.51.95,1.08,1.28,1.72,1.38,2.59,1.27,7.42-3.87,9.3-.68.22-1.4.32-2.12.32h-5.41c-1.21,0-2.4.44-3.23,1.31-.38.4-.72.91-.94,1.56-.14.49-.19.81-.22,1.23-.17,1.63-.25,3.25-.23,4.65h29.2Z"/>
  <g>
    <path class="cls-1" d="m173.13,253.58v-20.46h8.79v11.69l12.6-11.69h10.72l-21.39,20.46h-10.72Z"/>
    <path class="cls-1" d="m240.23,233.12l-4.96,5.85h-13.4l-.59,1.46h16.09l-4.96,5.85h-13.4l-.56,1.46h16.09l-4.96,5.85h-24.13l7.99-20.46h26.81Z"/>
    <path class="cls-1" d="m255.61,247.74l-2.28,5.85h-10.72l7.99-20.46h18.77c8.94,0,12.45,2.44,10.54,7.31-1.52,3.9-5.29,6.24-11.31,7.01l8.87,6.14h-13.4l-8.44-5.85Zm3.43-8.77l-1.15,2.92h8.04c1.79,0,2.87-.49,3.24-1.46.39-.97-.3-1.46-2.09-1.46h-8.04Z"/>
    <path class="cls-1" d="m297.49,246.28c-8.94,0-12.54-2.21-10.8-6.63,1.7-4.35,7.01-6.52,15.95-6.52h18.77l-4.96,5.85h-16.09c-1.79,0-2.77.22-2.95.67-.21.53.57.79,2.36.79h8.04c8.94,0,12.56,2.17,10.88,6.52-1.73,4.42-7.07,6.63-16.01,6.63h-18.77l4.96-5.85h16.09c1.79,0,2.79-.26,3-.79.16-.45-.65-.67-2.44-.67h-8.04Z"/>
    <path class="cls-1" d="m345.45,238.97l-5.71,14.61h-10.72l5.71-14.61h-8.04l2.28-5.85h26.81l-4.96,5.85h-5.36Z"/>
    <path class="cls-1" d="m364.22,250.66l-3.03,2.92h-10.72l21.39-20.46h10.72l5.42,20.46h-10.72l-.75-2.92h-12.31Zm12.06-5.85l-1.34-5.85-5.82,5.85h7.16Z"/>
    <path class="cls-1" d="m411.86,238.97l-5.71,14.61h-10.72l5.71-14.61h-8.04l2.28-5.85h26.81l-4.96,5.85h-5.36Z"/>
    <path class="cls-1" d="m206.46,260.89h3.76v19.05h-3.76v-19.05Z"/>
    <path class="cls-1" d="m234.85,260.89h3.76v19.05h-2.86l-8.17-11.65v11.65h-3.76v-19.05h2.86l8.17,11.62v-11.62Z"/>
    <path class="cls-1" d="m259.79,260.89c2.61,0,4.79.92,6.55,2.75,1.75,1.83,2.63,4.09,2.63,6.78s-.88,4.95-2.63,6.78c-1.75,1.83-3.93,2.75-6.55,2.75h-7.57v-19.05h7.57Zm0,15.46c1.65,0,2.99-.55,4.03-1.65,1.03-1.1,1.55-2.53,1.55-4.29s-.52-3.19-1.55-4.29c-1.03-1.1-2.38-1.65-4.03-1.65h-3.81v11.87h3.81Z"/>
    <path class="cls-1" d="m288.65,280.32c-2.12,0-3.87-.6-5.23-1.8-1.36-1.2-2.04-2.8-2.04-4.82v-12.82h3.73v12.52c0,1,.29,1.79.86,2.37.57.58,1.47.87,2.68.87s2.11-.29,2.68-.87c.57-.58.86-1.37.86-2.37v-12.52h3.76v12.82c0,2.01-.68,3.62-2.04,4.82-1.36,1.2-3.11,1.8-5.25,1.8Z"/>
    <path class="cls-1" d="m315.6,280.32c-1.89,0-3.48-.42-4.76-1.27-1.29-.84-2.2-1.99-2.72-3.44l3.21-1.88c.74,1.94,2.2,2.91,4.38,2.91,1.05,0,1.82-.19,2.31-.57.49-.38.73-.86.73-1.44,0-.67-.3-1.19-.9-1.57-.6-.37-1.67-.78-3.21-1.21-.85-.25-1.57-.51-2.16-.76-.59-.25-1.18-.59-1.77-1.02-.59-.43-1.04-.97-1.35-1.62-.31-.65-.46-1.42-.46-2.29,0-1.72.61-3.1,1.84-4.12,1.22-1.03,2.7-1.54,4.42-1.54,1.54,0,2.9.38,4.07,1.13,1.17.75,2.08,1.8,2.74,3.14l-3.16,1.82c-.76-1.63-1.98-2.45-3.65-2.45-.78,0-1.39.18-1.84.53-.44.35-.67.81-.67,1.37,0,.6.25,1.08.75,1.46.5.37,1.46.78,2.87,1.21.58.18,1.02.32,1.32.42.3.1.71.25,1.22.46.52.21.92.4,1.2.59.28.18.6.43.97.73.36.31.64.63.83.95.19.33.35.72.49,1.18s.2.97.2,1.51c0,1.76-.64,3.16-1.92,4.19-1.28,1.03-2.94,1.55-4.99,1.55Z"/>
    <path class="cls-1" d="m347.47,260.89v3.59h-5.14v15.46h-3.76v-15.46h-5.12v-3.59h14.02Z"/>
    <path class="cls-1" d="m369.63,279.94l-3.84-6.61h-2.86v6.61h-3.76v-19.05h7.62c1.76,0,3.26.62,4.49,1.85,1.23,1.23,1.85,2.72,1.85,4.46,0,1.18-.34,2.27-1.01,3.28-.67,1.01-1.56,1.77-2.67,2.27l4.22,7.19h-4.06Zm-6.7-15.54v5.63h3.87c.71,0,1.32-.28,1.82-.83.51-.55.76-1.22.76-2s-.25-1.44-.76-1.99c-.51-.54-1.12-.82-1.82-.82h-3.87Z"/>
    <path class="cls-1" d="m385.9,260.89h3.76v19.05h-3.76v-19.05Z"/>
    <path class="cls-1" d="m407.02,276.35h8.03v3.59h-11.79v-19.05h11.65v3.59h-7.89v4.06h7.21v3.54h-7.21v4.27Z"/>
    <path class="cls-1" d="m434.14,280.32c-1.89,0-3.48-.42-4.76-1.27-1.29-.84-2.2-1.99-2.72-3.44l3.21-1.88c.74,1.94,2.2,2.91,4.38,2.91,1.05,0,1.82-.19,2.31-.57.49-.38.73-.86.73-1.44,0-.67-.3-1.19-.9-1.57-.6-.37-1.67-.78-3.21-1.21-.85-.25-1.57-.51-2.16-.76-.59-.25-1.18-.59-1.77-1.02-.59-.43-1.04-.97-1.35-1.62-.31-.65-.46-1.42-.46-2.29,0-1.72.61-3.1,1.84-4.12,1.22-1.03,2.7-1.54,4.42-1.54,1.54,0,2.9.38,4.07,1.13,1.17.75,2.08,1.8,2.74,3.14l-3.16,1.82c-.76-1.63-1.98-2.45-3.65-2.45-.78,0-1.39.18-1.84.53-.44.35-.67.81-.67,1.37,0,.6.25,1.08.75,1.46.5.37,1.46.78,2.87,1.21.58.18,1.02.32,1.32.42.3.1.71.25,1.22.46.52.21.92.4,1.2.59.28.18.6.43.97.73.36.31.64.63.83.95.19.33.35.72.49,1.18s.2.97.2,1.51c0,1.76-.64,3.16-1.92,4.19-1.28,1.03-2.94,1.55-4.99,1.55Z"/>
  </g>
</svg>